HIERARCHY
ROOT Hips
{
	OFFSET 81.589203 -19.508213 83.739304
	CHANNELS 6 Xposition Yposition Zposition Xrotation Yrotation Zrotation
	JOINT spine
	{
		OFFSET 0.000000 -0.393702 6.846367
		CHANNELS 3 Xrotation Yrotation Zrotation
		JOINT spine1
		{
			OFFSET 0.000000 -0.000002 9.496208
			CHANNELS 3 Xrotation Yrotation Zrotation
			JOINT spine2
			{
				OFFSET 0.000000 0.000000 9.099091
				CHANNELS 3 Xrotation Yrotation Zrotation
				JOINT Neck
				{
					OFFSET 0.000000 -1.113783 23.361206
					CHANNELS 3 Xrotation Yrotation Zrotation
					JOINT Head
					{
						OFFSET 0.000000 -0.000002 7.058014
						CHANNELS 3 Xrotation Yrotation Zrotation
						End Site
						{
							OFFSET 0.000000 5.634187 17.084396
						}
					}
				}
				JOINT RightShoulder
				{
					OFFSET -3.831360 0.533489 9.826309
					CHANNELS 3 Xrotation Yrotation Zrotation
					JOINT RightArm
					{
						OFFSET 0.000000 -0.000002 12.888107
						CHANNELS 3 Xrotation Yrotation Zrotation
						JOINT RightArmRoll
						{
							OFFSET 0.000000 -0.000002 6.506165
							CHANNELS 3 Xrotation Yrotation Zrotation
							JOINT RightForeArm
							{
								OFFSET 0.000000 -0.000002 18.950104
								CHANNELS 3 Xrotation Yrotation Zrotation
								JOINT RightForeArmRoll
								{
									OFFSET 0.000000 -0.000002 7.300919
									CHANNELS 3 Xrotation Yrotation Zrotation
									JOINT RightHand
									{
										OFFSET 0.000000 -0.000002 14.651398
										CHANNELS 3 Xrotation Yrotation Zrotation
										End Site
										{
											OFFSET 0.000000 0.000000 0.100006
										}
									}
								}
							}
						}
					}
				}
				JOINT LeftShoulder
				{
					OFFSET 3.831360 0.533489 9.826309
					CHANNELS 3 Xrotation Yrotation Zrotation
					JOINT LeftArm
					{
						OFFSET 0.000000 -0.000002 12.888107
						CHANNELS 3 Xrotation Yrotation Zrotation
						JOINT LeftArmRoll
						{
							OFFSET 0.000000 -0.000002 6.506165
							CHANNELS 3 Xrotation Yrotation Zrotation
							JOINT LeftForeArm
							{
								OFFSET 0.000000 -0.000002 18.950104
								CHANNELS 3 Xrotation Yrotation Zrotation
								JOINT LeftForeArmRoll
								{
									OFFSET 0.000000 -0.000002 7.300919
									CHANNELS 3 Xrotation Yrotation Zrotation
									JOINT LeftHand
									{
										OFFSET 0.000000 -0.000002 14.651398
										CHANNELS 3 Xrotation Yrotation Zrotation
										End Site
										{
											OFFSET 0.000000 0.000000 0.100006
										}
									}
								}
							}
						}
					}
				}
			}
		}
	}
	JOINT RightUpLeg
	{
		OFFSET -6.068367 0.933477 -1.112778
		CHANNELS 3 Xrotation Yrotation Zrotation
		JOINT RightUpLegRoll
		{
			OFFSET 0.000000 -0.000004 17.179596
			CHANNELS 3 Xrotation Yrotation Zrotation
			JOINT RightLeg
			{
				OFFSET 0.000000 0.000004 -21.274300
				CHANNELS 3 Xrotation Yrotation Zrotation
				JOINT RightLegRoll
				{
					OFFSET 0.000000 -0.000004 21.343903
					CHANNELS 3 Xrotation Yrotation Zrotation
					JOINT RightFoot
					{
						OFFSET 0.000000 -0.000002 17.765198
						CHANNELS 3 Xrotation Yrotation Zrotation
						JOINT RightToeBase
						{
							OFFSET 0.000000 -0.000002 14.850807
							CHANNELS 3 Xrotation Yrotation Zrotation
							End Site
							{
								OFFSET 0.006294 0.829002 7.192123
							}
						}
					}
				}
			}
		}
	}
	JOINT LeftUpLeg
	{
		OFFSET 6.068367 0.933477 -1.112778
		CHANNELS 3 Xrotation Yrotation Zrotation
		JOINT LeftUpLegRoll
		{
			OFFSET 0.000000 -0.000004 17.179703
			CHANNELS 3 Xrotation Yrotation Zrotation
			JOINT LeftLeg
			{
				OFFSET 0.000000 -0.000002 21.274200
				CHANNELS 3 Xrotation Yrotation Zrotation
				JOINT LeftLegRoll
				{
					OFFSET 0.000000 -0.000004 21.541199
					CHANNELS 3 Xrotation Yrotation Zrotation
					JOINT LeftFoot
					{
						OFFSET 0.000000 -0.000004 17.567902
						CHANNELS 3 Xrotation Yrotation Zrotation
						JOINT LeftToeBase
						{
							OFFSET 0.000000 -0.000002 14.850800
							CHANNELS 3 Xrotation Yrotation Zrotation
							End Site
							{
								OFFSET -0.028214 0.829002 7.192123
							}
						}
					}
				}
			}
		}
	}
}
MOTION
Frames: 10
Frame Time: 0.041667
83.897102 -17.101814 85.336304 0.033703 14.027899 57.091427 -3.666616 0.842422 0.242399 -3.334721 1.670978 0.530348 -1.689383 1.677212 0.510281 9.308208 -9.016656 4.587658 4.128327 14.003511 3.839713 -29.983615 -33.522442 -37.841007 412.771418 -32.530627 494.824201 0.000001 0.000001 -0.000009 98.071025 -9.156027 20.049310 0.000010 0.000011 -3.000001 -4.999722 -8.000008 -0.000029 -12.814405 46.002892 14.566381 259.463259 77.967634 -286.175856 -0.000001 0.000000 -0.000003 3.313996 14.619981 -0.202090 0.000008 -0.000011 3.018710 -4.999634 8.001140 -0.000039 7.389211 -174.480925 2.809379 -179.999991 0.000004 -1.534004 163.970835 0.429624 -0.603576 0.000006 -0.000003 0.048187 66.180640 6.993246 2.069995 30.991311 -6.659339 7.515003 -45.932950 176.867626 5.626072 -0.000003 -0.000006 -1.043142 -44.648725 -3.129154 0.705430 -0.000003 0.000002 -0.854171 69.857986 -6.989886 -1.804531 25.456853 7.355619 0.000013 
83.899101 -17.137211 85.334198 -0.054987 14.160395 57.400247 -3.659425 0.852955 0.248772 -3.320499 1.691717 0.543583 -1.675157 1.698115 0.523273 9.071315 -8.847557 4.485347 4.282370 13.703585 3.754485 -29.887627 -33.596570 -37.703259 413.180874 -32.047190 494.209211 -0.000001 0.000001 -0.000009 98.026506 -9.013506 19.642673 0.000013 0.000012 -3.000001 -4.999723 -8.000005 -0.000029 -13.144119 46.023184 14.991688 260.117482 78.074082 -287.420999 -0.000002 0.000001 -0.000003 2.830748 14.187976 -0.076377 0.000008 -0.000010 3.027130 -4.999634 8.001139 -0.000038 7.430562 -174.691691 2.707604 -179.999991 0.000003 -1.529999 164.102644 0.383742 -0.603703 0.000008 -0.000003 0.047162 66.168482 6.992007 2.073309 30.958444 -6.665565 7.492511 -46.118667 176.798832 5.607722 -0.000005 -0.000006 -1.039834 -44.718215 -3.108434 0.715689 -0.000003 0.000001 -0.858185 69.882076 -6.987946 -1.808069 25.456854 7.355613 0.000013 
83.870102 -17.179611 85.347603 -0.145800 14.293759 57.708002 -3.651326 0.864125 0.254638 -3.304470 1.713768 0.555810 -1.659119 1.720310 0.535229 8.820315 -8.694125 4.385937 4.447966 13.412653 3.672933 -29.794535 -33.694740 -37.567273 413.589702 -31.575975 493.484337 -0.000000 0.000002 -0.000009 97.979917 -8.856359 19.195956 0.000010 0.000012 -3.000000 -4.999720 -8.000007 -0.000028 -13.487571 46.016514 15.433492 260.713785 78.190940 -288.627620 -0.000001 0.000006 -0.000003 2.408980 13.715941 0.045208 0.000008 -0.000011 3.036331 -4.999634 8.001140 -0.000039 7.469696 -174.904370 2.604257 -179.999991 0.000004 -1.525994 164.233620 0.336834 -0.603895 0.000005 -0.000000 0.046225 66.157246 6.990649 2.076735 30.922295 -6.672548 7.465963 -46.305923 176.725121 5.586965 -0.000003 -0.000004 -1.036374 -44.787152 -3.084823 0.727079 -0.000004 0.000002 -0.862176 69.906255 -6.985997 -1.811700 25.456856 7.355616 0.000013 
83.879997 -17.205614 85.332207 -0.238362 14.427678 58.014391 -3.642497 0.875751 0.260148 -3.286953 1.736760 0.567318 -1.641599 1.743435 0.546464 8.558230 -8.552100 4.288856 4.622326 13.127951 3.594633 -29.702143 -33.812322 -37.430260 413.993393 -31.122327 492.673183 -0.000003 0.000001 -0.000009 97.928971 -8.688585 18.718299 0.000010 0.000011 -2.999999 -4.999724 -8.000006 -0.000028 -13.841308 45.988258 15.887573 261.270309 78.316766 -289.809352 -0.000001 0.000006 -0.000001 2.042578 13.210516 0.161663 0.000008 -0.000009 3.046120 -4.999634 8.001142 -0.000037 7.506613 -175.118004 2.499643 -180.000005 0.000005 -1.520997 164.364090 0.289862 -0.603866 0.000005 -0.000002 0.045364 66.146605 6.989248 2.080321 30.883465 -6.680178 7.435712 -46.494252 176.647953 5.564105 -0.000003 -0.000004 -1.032799 -44.855270 -3.058913 0.739342 -0.000004 0.000002 -0.866104 69.930543 -6.984007 -1.815520 25.456860 7.355616 0.000013 
83.861801 -17.240314 85.340889 -0.332295 14.562267 58.319557 -3.633097 0.887653 0.265434 -3.268303 1.760325 0.578397 -1.622943 1.767123 0.557256 8.288115 -8.417254 4.193538 4.802695 12.846940 3.519080 -29.608556 -33.944695 -37.289650 414.388014 -30.689614 491.801433 -0.000003 -0.000001 -0.000009 97.871823 -8.513601 18.222830 0.000011 0.000011 -3.000000 -4.999724 -8.000005 -0.000029 -14.202031 45.944043 16.349921 261.804211 78.450118 -290.978872 -0.000002 0.000004 -0.000003 1.725298 12.678352 0.272213 0.000008 -0.000009 3.056309 -4.999634 8.001146 -0.000038 7.541320 -175.332527 2.393947 -179.999991 0.000003 -1.516989 164.494055 0.242830 -0.604630 0.000006 -0.000003 0.044557 66.136394 6.987818 2.083764 30.842163 -6.688389 7.402121 -46.683308 176.568682 5.539500 -0.000005 -0.000004 -1.029111 -44.922000 -3.031319 0.752251 -0.000004 0.000002 -0.869942 69.954620 -6.982031 -1.819350 25.456860 7.355617 0.000014 
83.866096 -17.280514 85.302803 -0.427246 14.697309 58.623398 -3.623286 0.899649 0.270652 -3.248856 1.784070 0.589329 -1.603493 1.791008 0.567905 8.013045 -8.285340 4.099469 4.986289 12.566885 3.445781 -29.511366 -34.087244 -37.142743 414.770477 -30.279274 490.895804 -0.000004 -0.000001 -0.000009 97.805331 -8.335440 17.716642 0.000013 0.000010 -3.000000 -4.999720 -8.000006 -0.000028 -14.566692 45.889702 16.816805 262.332758 78.589208 -292.149075 -0.000002 0.000003 -0.000002 1.450936 12.126139 0.376131 0.000007 -0.000008 3.066720 -4.999635 8.001142 -0.000038 7.573802 -175.548033 2.287313 -179.999991 0.000003 -1.511993 164.623706 0.194772 -0.604437 0.000006 -0.000003 0.043786 66.126381 6.986375 2.087400 30.798764 -6.697079 7.365510 -46.872375 176.487321 5.514939 -0.000008 -0.000005 -1.025333 -44.986976 -3.002638 0.765578 -0.000004 0.000002 -0.873658 69.978286 -6.980063 -1.823319 25.456851 7.355619 0.000013 
83.847198 -17.301714 85.345703 -0.522858 14.832710 58.925859 -3.613258 0.911557 0.275956 -3.228948 1.807658 0.600414 -1.583575 1.814717 0.578708 7.736094 -8.152105 4.006144 5.170372 12.285341 3.374175 -29.408783 -34.235394 -36.987124 415.138707 -29.890639 489.984876 -0.000003 -0.000001 -0.000009 97.727009 -8.157421 17.211817 0.000012 0.000012 -3.000001 -4.999720 -8.000008 -0.000029 -14.932142 45.830894 17.284482 262.873053 78.732096 -293.332637 -0.000002 0.000003 -0.000001 1.213245 11.560483 0.472703 0.000008 -0.000010 3.077149 -4.999634 8.001141 -0.000038 7.604088 -175.763444 2.180039 -179.999991 0.000004 -1.506995 164.753138 0.147621 -0.604761 0.000006 -0.000003 0.043043 66.116354 6.984882 2.091020 30.753477 -6.706176 7.326232 -47.061144 176.405918 5.490035 -0.000004 -0.000004 -1.021483 -45.049623 -2.973472 0.779090 -0.000002 0.000002 -0.877215 70.001414 -6.978109 -1.827317 25.456853 7.355620 0.000013 
83.838699 -17.335312 85.347496 -0.618792 14.968469 59.226729 -3.603160 0.923197 0.281491 -3.208909 1.830699 0.611939 -1.563525 1.837885 0.589951 7.460354 -8.013338 3.913151 5.352210 11.999586 3.303725 -29.298479 -34.384460 -36.819982 415.491773 -29.520904 489.098262 -0.000004 -0.000001 -0.000009 97.633695 -7.983012 16.718450 0.000012 0.000010 -3.000000 -4.999724 -8.000008 -0.000028 -15.295985 45.773664 17.749889 263.442609 78.876998 -294.542837 -0.000002 0.000004 -0.000001 1.006041 10.988353 0.561118 0.000007 -0.000005 3.087422 -4.999634 8.001144 -0.000038 7.632175 -175.977830 2.072450 -179.999991 0.000005 -1.500995 164.882378 0.099430 -0.604134 0.000004 -0.000001 0.042308 66.106232 6.983413 2.094557 30.706799 -6.715603 7.284650 -47.249169 176.325145 5.465921 -0.000003 -0.000004 -1.017571 -45.109684 -2.944420 0.792538 -0.000005 0.000001 -0.880574 70.023899 -6.976128 -1.831253 25.456860 7.355619 0.000013 
83.820099 -17.366514 85.322090 -0.714716 15.104378 59.526048 -3.593160 0.934390 0.287403 -3.189089 1.852818 0.624189 -1.543703 1.860157 0.601938 7.188923 -7.864806 3.820114 5.529040 11.706899 3.233850 -29.178360 -34.529796 -36.638924 415.830140 -29.165717 488.267329 -0.000003 -0.000003 -0.000009 97.521619 -7.815699 16.246542 0.000012 0.000012 -3.000001 -4.999721 -8.000004 -0.000028 -15.655591 45.723998 18.209861 264.058283 79.021676 -295.791833 -0.000002 0.000004 -0.000002 0.823162 10.416151 0.640443 0.000008 -0.000010 3.097338 -4.999634 8.001138 -0.000040 7.658064 -176.191177 1.964706 -179.999991 0.000005 -1.495998 165.011701 0.052157 -0.604040 0.000006 -0.000003 0.041579 66.095590 6.981957 2.098324 30.659025 -6.725271 7.241114 -47.435794 176.245628 5.443682 -0.000005 -0.000003 -1.013609 -45.166579 -2.916085 0.805672 -0.000004 0.000002 -0.883711 70.045338 -6.974174 -1.835360 25.456851 7.355619 0.000011 
83.805702 -17.407015 85.325302 -0.810309 15.240449 59.823728 -3.583438 0.944951 0.293850 -3.169827 1.873651 0.637471 -1.524431 1.881144 0.614966 6.924931 -7.702256 3.726655 5.698166 11.404859 3.163928 -29.046250 -34.666823 -36.441385 416.155312 -28.818774 487.524040 -0.000002 -0.000001 -0.000009 97.387378 -7.658535 15.807139 0.000011 0.000011 -2.999999 -4.999722 -8.000004 -0.000028 -16.008628 45.687880 18.661544 264.736411 79.163839 -297.091700 -0.000001 0.000001 0.000000 0.658476 9.850658 0.709614 0.000008 -0.000010 3.106720 -4.999634 8.001138 -0.000039 7.681749 -176.403487 1.856970 -180.000005 0.000005 -1.489999 165.141106 0.004829 -0.603720 0.000007 -0.000002 0.040829 66.084348 6.980575 2.101845 30.610357 -6.735110 7.195950 -47.620721 176.168692 5.423728 -0.000004 -0.000005 -1.009618 -45.219831 -2.889053 0.818255 -0.000003 0.000002 -0.886585 70.065631 -6.972291 -1.839256 25.456861 7.355620 0.000013 
